{"glyphs":{":":{"x_min":0,"x_max":244,"ha":244,"o":"m 150 150 q 171 150 185 135 q 200 120 200 99 q 200 79 182 59 q 164 39 138 39 q 116 39 102 52 q 88 65 88 84 q 88 116 108 133 q 127 150 150 150 z m 203 413 q 224 413 238 398 q 252 382 252 362 q 252 342 235 322 q 217 302 191 302 q 169 302 155 315 q 141 329 141 348 q 141 379 161 396 q 181 413 203 413 z"},"$":{"x_min":0,"x_max":438,"ha":438,"o":"m 93 10 q 85 10 76 4 q 67 -1 56 -1 q 64 37 70 146 l 115 149 q 117 125 121 105 q 126 86 135 69 q 144 51 160 41 q 176 30 199 26 l 246 259 q 235 264 226 268 q 216 272 205 279 q 194 285 185 291 q 176 297 167 306 q 157 315 150 324 q 144 334 138 346 q 132 358 130 371 q 127 384 127 400 q 127 417 131 434 q 139 474 170 505 q 201 536 237 551 q 273 566 310 571 l 321 627 l 361 627 l 350 571 q 368 570 394 568 q 421 565 432 564 q 443 563 462 564 q 455 519 453 421 l 409 417 l 407 435 q 401 489 390 510 q 377 532 342 536 l 301 333 q 320 327 339 317 q 358 308 378 292 q 398 275 413 256 q 427 237 433 211 q 440 185 434 156 q 428 125 414 97 q 400 70 376 46 q 353 22 316 7 q 278 -8 231 -11 l 217 -81 l 177 -81 l 191 -11 q 162 -9 131 0 q 100 10 93 10 z m 239 27 q 254 29 268 35 q 281 41 295 52 q 309 63 319 83 q 330 102 335 127 q 350 202 283 242 z m 302 535 q 269 529 247 505 q 224 480 216 438 q 210 413 225 389 q 240 365 264 349 z"},"?":{"x_min":0,"x_max":430,"ha":430,"o":"m 244 571 q 241 556 246 544 q 250 535 247 517 q 244 500 224 489 q 204 478 180 478 q 162 478 147 490 q 133 501 133 522 q 133 530 134 534 q 139 559 156 578 q 172 597 205 620 q 262 659 350 659 q 424 659 466 627 q 507 595 507 539 q 507 524 504 506 q 500 484 488 464 q 476 443 463 429 q 451 416 429 398 q 407 380 395 372 l 358 348 q 343 338 333 331 q 323 323 310 309 q 297 294 288 274 q 279 254 274 229 l 269 206 q 266 188 257 180 q 249 172 227 172 q 210 172 204 176 q 198 180 198 190 q 198 194 200 206 l 205 231 q 208 248 211 258 q 214 268 222 287 q 230 306 240 321 q 250 336 269 355 q 288 375 312 394 q 345 419 362 443 q 379 467 386 503 q 390 527 390 537 q 390 574 375 598 q 359 623 333 623 q 300 623 274 607 q 248 592 244 571 z m 226 101 q 247 101 258 86 q 269 70 265 50 q 261 30 239 10 q 217 -10 191 -10 q 169 -10 158 3 q 146 17 150 36 q 157 67 180 84 q 203 101 226 101 z"},"<":{"x_min":0,"x_max":512,"ha":512,"o":"m 202 240 l 496 124 l 483 62 l 86 218 l 95 262 l 556 418 l 543 356 z"},"'":{"x_min":0,"x_max":232,"ha":232,"o":"m 197 421 l 182 425 q 188 585 188 591 q 192 610 214 628 q 235 645 265 645 q 304 645 304 621 q 304 618 302 608 q 300 601 283 556 l 249 469 l 232 427 z"},"=":{"x_min":0,"x_max":551,"ha":551,"o":"m 534 198 l 522 142 l 87 142 l 99 198 z m 559 323 l 547 266 l 113 266 l 124 323 z"},"a":{"x_min":0,"x_max":540,"ha":540,"o":"m 373 195 q 386 230 395 273 q 404 315 404 331 q 404 361 391 383 q 378 405 357 405 q 319 405 281 363 q 244 321 222 262 q 200 203 200 151 q 200 127 202 110 q 204 93 208 76 q 213 59 224 49 q 234 40 250 40 q 271 40 310 87 q 349 135 373 195 z m 340 39 q 340 52 341 58 l 339 59 q 293 16 270 3 q 247 -10 216 -10 q 179 -10 151 4 q 123 18 107 40 q 92 62 85 86 q 78 109 78 132 q 78 188 105 247 q 132 305 173 347 q 213 390 262 417 q 312 444 354 444 q 421 444 438 392 q 471 416 495 444 l 550 447 q 552 447 552 444 l 521 321 l 473 125 q 466 93 466 83 q 466 67 475 67 q 490 67 532 105 l 557 82 q 502 28 471 9 q 440 -10 402 -10 q 368 -10 354 6 q 340 21 340 39 z"},"L":{"x_min":0,"x_max":575,"ha":575,"o":"m 236 569 q 237 573 237 582 q 237 599 226 606 q 215 613 189 613 l 175 613 q 168 613 168 621 l 172 645 l 174 646 q 271 645 311 645 l 447 646 l 449 645 l 445 621 q 443 613 436 613 l 421 613 q 391 613 377 602 q 363 591 359 569 l 275 92 q 273 80 273 75 q 273 46 292 46 l 402 46 q 438 46 472 82 q 506 118 529 175 l 575 167 l 525 0 l 274 0 l 197 1 l 57 -1 l 49 8 l 51 23 q 54 35 83 35 l 113 35 q 131 35 138 43 q 146 51 149 75 z"},"3":{"x_min":0,"x_max":470,"ha":470,"o":"m 335 570 q 322 570 308 566 q 294 563 279 555 q 263 548 250 532 q 238 517 234 495 q 230 474 217 457 q 204 440 178 440 q 158 440 151 449 q 143 459 143 470 q 143 471 143 473 q 144 474 144 475 l 144 477 l 144 477 q 146 489 155 504 q 163 520 180 539 q 197 558 221 573 q 244 588 281 599 q 318 610 361 610 q 395 610 419 602 q 444 593 457 579 q 469 565 475 551 q 481 536 481 519 q 481 512 479 500 q 477 489 469 473 q 461 458 447 438 q 433 417 406 397 q 380 377 348 364 q 392 359 424 326 q 457 292 457 238 q 457 222 453 204 q 443 152 417 111 q 391 70 355 44 q 318 17 275 3 q 232 -11 186 -11 q 155 -11 125 -4 q 94 4 73 19 q 51 34 51 52 q 51 56 52 58 q 54 72 71 83 q 88 95 109 95 q 129 95 138 89 q 146 82 152 69 q 157 53 171 42 q 185 30 207 30 q 216 30 228 34 q 240 38 257 49 q 273 61 289 78 q 304 95 317 124 q 331 153 338 190 q 343 217 343 233 q 343 315 260 315 q 253 315 208 305 l 210 345 q 252 355 284 371 q 316 388 335 407 q 354 427 364 446 q 374 464 377 484 q 380 498 380 510 q 380 538 367 554 q 354 570 335 570 z"},";":{"x_min":0,"x_max":244,"ha":244,"o":"m 150 102 q 178 102 191 82 q 205 62 205 32 q 205 1 195 -25 q 185 -51 168 -68 q 152 -86 130 -99 q 108 -113 88 -120 q 67 -127 46 -131 q 39 -120 45 -98 q 84 -89 108 -64 q 131 -39 131 -17 q 131 -3 117 0 q 102 3 93 16 q 84 30 84 50 q 84 72 102 87 q 121 102 150 102 z m 201 413 q 222 413 236 398 q 250 382 250 362 q 250 342 233 322 q 215 302 189 302 q 167 302 153 315 q 139 329 139 348 q 139 379 159 396 q 179 413 201 413 z"},"J":{"x_min":0,"x_max":452,"ha":452,"o":"m 473 580 q 467 546 456 462 q 446 378 446 360 q 446 346 455 342 q 464 337 492 335 l 488 307 l 436 301 q 433 280 407 130 q 398 79 383 36 q 367 -7 348 -37 q 330 -66 308 -90 q 286 -113 265 -126 q 244 -140 222 -149 q 200 -158 184 -161 q 167 -164 153 -164 q 108 -164 77 -149 q 46 -134 46 -109 q 46 -94 59 -79 q 71 -65 92 -65 q 111 -65 125 -74 q 138 -83 143 -93 q 148 -104 154 -112 q 160 -121 166 -121 q 196 -121 221 -90 q 246 -58 263 0 q 281 57 293 132 q 306 207 313 300 q 194 309 192 309 l 192 333 l 319 341 q 337 462 383 562 q 354 562 327 574 q 318 578 292 590 q 266 603 248 609 q 229 615 217 615 q 210 615 206 607 q 202 600 202 591 q 202 583 206 581 q 224 563 224 546 q 224 528 211 517 q 199 507 174 507 q 121 507 121 556 q 121 573 130 590 q 138 608 155 625 q 172 642 203 652 q 234 663 274 663 q 323 663 403 626 q 424 679 473 679 q 499 679 514 670 q 530 662 530 644 q 530 620 473 580 z"},"V":{"x_min":0,"x_max":610,"ha":610,"o":"m 518 613 q 511 613 512 621 l 516 645 l 518 646 q 601 645 639 645 l 724 646 l 725 645 l 721 621 q 720 613 712 613 q 685 613 670 607 q 655 602 646 590 q 637 579 621 549 l 333 11 q 328 1 316 -6 q 304 -12 296 -12 q 288 -12 279 -6 q 271 1 269 11 l 182 554 q 176 590 164 601 q 152 613 116 613 q 109 613 109 621 l 114 645 l 116 646 q 209 645 246 645 l 385 646 l 386 645 l 382 621 q 380 613 373 613 q 332 613 314 606 q 297 599 297 581 q 297 575 298 572 l 355 216 l 360 185 l 376 213 l 563 562 q 575 585 575 595 q 575 605 562 609 q 550 613 518 613 z"},"\"":{"x_min":0,"x_max":361,"ha":361,"o":"m 209 421 l 194 425 q 200 585 200 591 q 205 610 226 628 q 247 645 277 645 q 316 645 316 621 q 316 616 314 608 q 312 601 295 556 l 261 469 l 244 427 z m 335 421 l 320 425 q 326 585 326 591 q 331 610 352 628 q 373 645 403 645 q 442 645 442 621 q 442 616 440 608 q 438 601 421 556 l 387 469 l 370 427 z"},"7":{"x_min":0,"x_max":470,"ha":470,"o":"m 237 594 l 534 594 l 536 586 l 453 441 l 376 308 l 317 204 l 256 94 l 206 -2 l 113 -13 l 111 0 l 214 162 l 346 368 q 403 458 437 517 l 252 517 q 239 517 231 515 q 223 513 213 506 q 203 500 194 484 q 186 469 175 444 l 140 452 q 179 545 193 600 l 201 600 q 208 594 237 594 z"},"S":{"x_min":0,"x_max":454,"ha":454,"o":"m 477 631 q 471 567 471 479 l 431 474 q 430 497 427 515 q 423 533 416 553 q 408 574 397 587 q 386 601 368 610 q 350 619 326 619 q 282 619 256 591 q 230 563 222 517 q 218 495 227 472 q 235 450 251 434 q 267 417 283 406 q 299 395 315 388 q 329 383 340 377 q 352 372 365 364 q 379 356 389 349 q 400 341 411 330 q 423 320 430 309 q 438 298 445 284 q 452 270 455 255 q 457 240 458 222 q 459 204 455 184 q 438 88 377 39 q 315 -10 229 -10 q 188 -10 160 -6 q 131 -2 117 1 q 103 5 95 5 q 85 5 72 2 q 58 0 50 0 q 57 51 63 175 l 102 178 q 104 111 136 71 q 167 31 216 31 q 324 31 346 145 q 354 190 338 225 q 322 260 282 278 q 257 289 238 299 q 218 310 193 329 q 168 348 152 369 q 136 391 128 421 q 119 451 125 485 q 131 520 146 549 q 163 578 184 598 q 205 618 231 632 q 257 646 283 652 q 309 658 334 658 q 374 658 397 653 q 421 648 440 641 q 459 634 477 631 z"},"}":{"x_min":0,"x_max":314,"ha":314,"o":"m 79 -70 l 115 109 q 127 169 150 198 q 172 228 217 246 q 188 261 177 280 q 165 299 165 328 q 165 355 174 396 l 207 559 q 215 601 215 622 q 215 640 211 648 q 206 665 197 675 q 188 685 183 687 q 177 689 170 691 l 174 709 q 295 706 315 671 q 328 646 328 610 q 328 586 320 544 l 285 371 q 279 339 279 319 q 279 261 326 249 l 325 244 q 304 238 288 226 q 271 214 261 196 q 251 179 245 162 q 239 145 235 124 l 197 -63 q 180 -141 140 -180 q 105 -215 -15 -218 l -11 -199 q 21 -192 49 -156 q 66 -134 79 -70 z"},"Z":{"x_min":0,"x_max":598,"ha":598,"o":"m 549 0 l 37 0 q 27 0 24 4 q 20 7 21 15 q 25 28 33 38 l 502 579 q 516 596 512 600 q 510 602 504 602 l 298 602 q 277 602 260 596 q 243 590 231 581 q 219 573 207 556 q 194 539 187 525 q 179 511 167 486 l 130 491 q 161 576 181 658 q 195 657 213 652 q 231 646 257 646 l 599 646 q 640 650 660 650 q 674 650 677 648 q 681 646 680 640 q 678 625 648 591 l 198 72 q 189 61 187 56 q 184 50 189 47 q 193 44 208 44 l 422 44 q 448 44 470 53 q 492 62 509 80 q 525 99 538 119 q 551 140 564 170 l 603 165 q 563 63 549 0 z"},"x":{"x_min":0,"x_max":517,"ha":517,"o":"m 351 356 q 409 445 499 445 q 525 445 545 434 q 565 424 565 405 q 565 386 552 371 q 539 356 521 356 q 500 356 478 368 q 464 375 454 375 q 451 375 442 368 q 433 361 425 350 l 353 240 l 405 74 q 412 50 426 50 q 437 50 446 62 q 455 74 455 88 l 502 61 q 459 -12 394 -12 q 357 -12 330 9 q 302 31 290 70 l 274 121 l 238 67 q 207 21 181 4 q 155 -12 119 -12 q 92 -12 69 -1 q 46 10 46 30 q 46 50 58 63 q 70 76 94 76 q 106 76 121 68 q 136 60 142 60 q 152 60 164 76 l 248 203 l 196 370 q 188 394 175 394 q 168 394 151 383 q 134 372 123 372 q 105 372 105 386 q 105 401 120 411 q 178 445 234 445 q 267 445 283 426 q 300 407 312 371 l 327 321 z"},")":{"x_min":0,"x_max":354,"ha":354,"o":"m 367 251 q 340 120 250 -3 q 160 -126 38 -216 l 11 -182 q 192 -15 247 251 q 264 335 264 411 q 264 578 187 685 l 229 717 q 273 671 304 620 q 334 569 350 521 q 365 473 371 433 q 377 393 377 353 q 377 301 367 251 z"},"&":{"x_min":0,"x_max":729,"ha":729,"o":"m 385 517 q 385 515 384 510 q 384 505 384 503 q 384 482 398 430 q 486 490 496 537 q 499 549 499 559 q 499 580 488 592 q 478 604 461 604 q 443 604 418 582 q 394 559 385 517 z m 415 131 q 354 240 318 322 q 257 288 229 249 q 200 211 189 158 q 185 137 185 115 q 185 71 206 50 q 228 29 262 29 q 288 29 313 42 q 338 55 359 74 q 380 93 415 131 z m 447 72 q 357 -12 247 -12 q 164 -12 115 19 q 66 50 66 116 q 66 139 71 158 q 83 215 135 266 q 188 317 298 374 q 272 441 272 486 q 272 502 275 515 q 286 565 341 605 q 396 645 475 645 q 531 645 566 620 q 602 595 602 555 q 602 549 600 537 q 592 500 541 455 q 490 411 417 372 q 419 368 419 365 q 440 313 490 216 q 595 338 603 380 q 604 390 610 392 l 582 392 q 572 393 566 395 q 561 397 560 398 q 560 400 560 402 l 562 416 l 573 426 q 639 423 672 423 l 773 426 l 781 416 l 778 403 q 774 392 745 392 l 718 392 q 708 392 694 376 q 680 359 645 312 l 636 301 q 563 203 522 154 q 573 49 591 49 q 635 49 674 112 l 707 95 q 679 43 643 15 q 607 -12 572 -12 q 554 -12 539 -9 q 524 -6 507 2 q 489 10 474 28 q 458 45 447 72 z"},"_":{"x_min":0,"x_max":511,"ha":511,"o":"m 493 -102 l 482 -153 l -33 -153 l -22 -102 z"},"v":{"x_min":0,"x_max":477,"ha":477,"o":"m 318 131 l 320 130 l 414 265 q 430 288 435 297 q 440 307 440 317 q 440 326 431 348 q 421 371 421 396 q 421 415 439 429 q 456 444 479 444 q 529 444 529 380 q 529 345 461 244 l 304 12 q 288 -12 266 -12 q 229 -12 226 16 l 183 341 q 181 362 168 362 q 158 362 143 349 q 128 335 117 319 q 98 332 92 350 q 134 401 164 423 q 193 444 236 444 q 250 444 260 438 q 271 433 277 425 q 283 417 287 403 q 292 388 293 376 q 295 366 297 344 z"},"O":{"x_min":0,"x_max":734,"ha":734,"o":"m 473 617 q 431 617 393 595 q 354 572 325 535 q 297 497 275 449 q 254 401 243 349 q 232 296 232 245 q 232 144 279 86 q 326 29 402 29 q 453 29 499 62 q 544 96 574 150 q 604 204 622 270 q 639 336 639 402 q 639 505 593 561 q 547 617 473 617 z m 375 -12 q 251 -12 174 58 q 97 128 97 247 q 97 295 111 345 q 124 395 148 440 q 172 486 208 526 q 244 565 287 595 q 330 625 383 641 q 437 658 493 658 q 572 658 635 626 q 699 594 736 532 q 773 471 773 391 q 773 316 745 244 q 716 172 666 115 q 616 58 540 23 q 463 -12 375 -12 z"},"(":{"x_min":0,"x_max":337,"ha":337,"o":"m 87 253 q 114 384 204 507 q 294 631 416 720 l 443 686 q 262 519 207 253 q 190 169 190 93 q 190 -74 267 -181 l 225 -213 q 181 -167 150 -116 q 120 -65 104 -17 q 89 31 83 71 q 77 111 77 151 q 77 203 87 253 z"},"C":{"x_min":0,"x_max":637,"ha":637,"o":"m 354 -10 q 285 -10 232 11 q 179 32 147 69 q 115 105 98 151 q 82 197 82 250 q 82 282 88 315 q 105 412 163 490 q 221 570 303 614 q 385 658 472 658 q 516 658 551 651 q 585 645 603 636 q 621 627 639 621 q 658 614 674 614 q 665 526 665 445 l 627 437 q 623 469 617 493 q 611 516 600 541 q 588 566 571 582 q 555 597 528 607 q 500 617 465 617 q 429 617 391 600 q 354 583 319 551 q 284 518 256 461 q 229 405 216 334 q 208 293 208 251 q 208 207 217 168 q 226 130 244 100 q 262 69 292 52 q 322 34 361 34 q 421 34 480 62 q 539 90 603 153 l 628 129 q 503 -10 354 -10 z"},"W":{"x_min":0,"x_max":957,"ha":957,"o":"m 297 -12 q 275 -12 264 0 q 254 11 250 35 l 176 562 q 172 583 161 598 q 150 613 132 613 l 120 613 q 109 613 109 621 l 114 644 l 116 646 q 186 645 222 645 l 358 646 l 360 644 l 356 622 q 354 613 346 613 q 315 613 304 605 q 293 598 297 572 l 347 218 l 356 146 l 390 216 l 501 442 q 512 464 515 480 q 517 498 515 508 l 506 572 q 503 593 491 603 q 478 613 451 613 l 448 613 q 443 613 440 615 q 438 618 438 621 l 442 644 l 444 646 q 498 645 536 645 l 700 646 l 701 644 l 697 620 q 695 613 688 613 q 671 613 662 612 q 653 610 643 605 q 632 600 629 587 q 626 575 629 554 l 677 207 l 685 139 l 723 215 l 899 569 q 909 586 905 596 q 900 606 888 609 q 875 613 851 613 q 848 613 846 615 q 844 618 845 620 l 849 644 l 852 646 q 930 645 970 645 l 1051 646 l 1053 645 l 1048 621 q 1047 613 1035 613 l 1025 613 q 997 613 984 602 q 970 592 954 560 l 699 44 q 684 14 669 1 q 654 -12 634 -12 q 606 -12 595 0 q 584 12 581 39 l 534 367 q 533 380 531 380 q 529 380 525 370 l 359 33 q 349 12 332 0 q 315 -12 297 -12 z"},"A":{"x_min":0,"x_max":719,"ha":719,"o":"m 316 288 l 470 288 l 429 494 l 314 300 q 307 288 316 288 z m 633 91 q 636 78 638 71 q 641 63 647 55 q 653 46 664 42 q 675 37 692 34 l 706 32 q 716 31 716 23 l 712 0 l 710 -2 q 673 0 634 0 l 450 -2 l 448 0 l 451 23 q 453 32 458 32 l 469 34 q 491 38 503 47 q 515 56 511 73 l 479 241 l 290 241 q 280 241 271 227 l 178 73 q 169 58 180 48 q 191 38 212 34 l 223 32 q 230 32 230 23 l 227 0 l 225 -2 q 137 0 101 0 l 15 -2 l 13 0 l 15 23 q 16 31 25 32 l 39 34 q 71 39 90 55 q 109 71 124 95 l 444 627 q 454 643 467 650 q 481 658 491 658 q 507 658 514 651 q 521 644 525 627 z"},"f":{"x_min":0,"x_max":370,"ha":370,"o":"m 177 387 l 129 387 q 103 387 103 394 q 106 407 107 412 q 109 420 121 427 q 133 434 155 434 l 186 434 q 197 485 214 527 q 230 568 247 595 q 264 622 284 642 q 304 662 321 673 q 338 683 357 689 q 376 695 388 697 q 400 698 413 698 q 531 698 531 622 q 531 582 484 582 q 462 582 443 598 q 423 614 422 634 q 420 662 405 662 q 378 662 357 621 q 335 580 314 490 l 301 434 l 388 434 q 416 434 416 425 l 411 403 q 409 395 394 391 q 379 387 363 387 l 290 387 q 288 380 270 294 q 252 208 235 134 q 217 61 185 -30 q 153 -121 119 -171 q 98 -202 67 -220 q 36 -238 0 -238 q -47 -238 -70 -220 q -93 -203 -93 -185 q -93 -171 -82 -160 q -71 -149 -49 -149 q -28 -149 -13 -156 q 1 -162 6 -170 l 17 -185 q 21 -191 26 -191 q 45 -191 60 -170 q 76 -149 87 -109 q 98 -69 106 -26 q 113 18 121 78 q 136 192 154 280 z"},"Q":{"x_min":0,"x_max":734,"ha":734,"o":"m 473 617 q 431 617 393 595 q 354 572 325 535 q 297 497 275 449 q 254 401 243 349 q 232 296 232 245 q 232 144 279 86 q 326 29 402 29 q 453 29 499 62 q 544 96 574 150 q 604 204 622 270 q 639 336 639 402 q 639 505 593 561 q 547 617 473 617 z m 134 -130 q 212 -53 310 -6 q 213 11 155 78 q 97 145 97 247 q 97 295 111 345 q 124 395 148 440 q 172 486 208 526 q 244 565 287 595 q 330 625 383 641 q 437 658 493 658 q 572 658 635 626 q 699 594 736 532 q 773 471 773 391 q 773 333 756 276 q 739 218 705 167 q 672 117 626 77 q 581 38 519 14 q 458 -9 389 -12 q 335 -31 276 -70 q 279 -70 286 -70 q 323 -70 361 -83 q 399 -96 426 -111 q 453 -126 487 -139 q 521 -152 550 -152 q 574 -152 600 -143 q 625 -134 644 -115 l 657 -137 q 620 -180 583 -199 q 545 -219 498 -219 q 462 -219 430 -209 q 397 -200 373 -186 q 349 -172 327 -158 q 305 -144 280 -134 q 254 -124 229 -124 q 212 -124 190 -138 q 167 -159 146 -183 l 112 -153 q 120 -142 134 -130 z"},"w":{"x_min":0,"x_max":702,"ha":702,"o":"m 102 350 q 145 401 174 423 q 204 444 246 444 q 260 444 271 438 q 281 433 287 425 q 292 417 296 403 q 299 389 301 377 q 302 364 303 344 l 312 159 l 314 158 l 410 328 q 439 381 460 381 q 474 381 484 371 q 494 360 499 349 q 503 337 506 324 l 544 121 l 546 120 l 626 265 q 638 287 641 296 q 645 306 645 317 q 645 326 636 348 q 626 371 626 396 q 626 415 644 429 q 661 444 684 444 q 734 444 734 380 q 734 362 721 333 q 708 304 673 244 l 536 12 q 522 -12 498 -12 q 472 -12 467 12 l 420 210 q 417 222 411 222 q 405 222 400 210 l 287 16 q 278 0 269 -6 q 261 -12 247 -12 q 233 -12 224 -4 q 216 4 215 16 l 189 341 q 188 362 178 362 q 168 362 153 349 q 138 335 127 319 q 109 331 102 350 z"},"-":{"x_min":0,"x_max":374,"ha":374,"o":"m 350 233 l 126 233 q 110 233 102 238 q 94 244 94 251 l 94 254 q 97 267 115 281 q 132 294 148 294 l 374 294 q 406 294 406 277 l 406 273 q 403 262 385 248 q 366 233 350 233 z"},"E":{"x_min":0,"x_max":538,"ha":538,"o":"m 25 0 l 23 2 l 27 24 q 28 33 36 33 l 49 33 q 78 33 92 43 q 105 53 110 77 l 197 569 q 197 569 198 574 q 198 579 198 582 q 198 598 188 605 q 177 613 152 613 l 138 613 q 135 613 133 615 q 131 618 132 621 l 136 644 l 139 646 l 587 646 q 578 571 578 484 l 538 475 q 536 499 533 517 q 529 535 521 556 q 513 577 497 588 q 481 600 459 600 l 334 600 q 320 600 315 571 l 279 365 l 387 365 q 393 365 398 367 q 403 370 407 375 q 412 381 415 385 q 417 390 422 400 q 426 411 428 417 l 434 436 q 434 439 439 443 q 444 447 451 447 l 471 447 l 475 437 q 458 380 452 344 q 444 297 442 251 l 435 242 l 415 242 q 408 242 404 245 q 400 249 401 252 q 402 272 402 280 q 402 302 397 312 q 393 323 380 323 l 272 323 l 228 75 q 226 62 226 59 q 226 46 236 46 l 383 46 q 421 46 454 83 q 487 120 510 179 l 550 169 q 518 79 494 0 z"},"s":{"x_min":0,"x_max":417,"ha":417,"o":"m 426 359 q 429 337 416 323 q 403 308 389 304 q 373 300 357 306 q 342 312 336 326 l 330 343 q 325 356 322 362 q 320 368 314 378 q 309 388 303 393 q 298 398 289 402 q 280 406 270 406 q 218 406 218 355 q 218 299 292 260 q 407 199 407 129 q 407 110 396 87 q 385 64 365 41 q 344 19 308 3 q 272 -12 228 -12 q 186 -12 150 -2 q 114 9 89 32 q 65 56 65 88 q 65 110 79 125 q 94 139 108 139 q 130 139 145 125 q 159 110 172 81 q 183 56 204 42 q 225 29 249 29 q 303 29 303 78 q 303 145 236 183 q 187 211 158 247 q 130 282 130 314 q 130 344 142 368 q 154 392 173 406 q 191 419 216 428 q 240 438 262 441 q 285 444 307 444 q 354 444 388 420 q 422 396 426 359 z"},">":{"x_min":0,"x_max":512,"ha":512,"o":"m 408 238 l 113 354 l 126 416 l 523 259 l 515 215 l 54 60 l 66 122 z"},"l":{"x_min":0,"x_max":326,"ha":326,"o":"m 208 563 q 211 577 213 586 q 215 595 215 603 q 215 611 215 616 q 215 620 211 624 q 208 628 204 630 q 201 632 192 634 q 184 636 177 636 q 170 637 156 638 q 152 652 161 672 q 274 676 345 698 q 352 698 355 695 q 359 691 358 685 q 347 648 332 583 l 228 134 q 219 93 219 83 q 219 66 229 66 q 237 66 255 76 q 274 86 292 100 q 302 100 309 93 q 316 85 318 74 q 265 30 225 10 q 185 -10 140 -10 q 95 -10 95 46 q 95 74 107 125 z"},"8":{"x_min":0,"x_max":470,"ha":470,"o":"m 348 575 q 312 575 292 552 q 271 529 263 491 q 261 480 261 474 q 261 424 301 393 l 325 374 q 384 414 397 480 q 401 500 401 517 q 401 575 348 575 z m 496 489 q 494 477 488 465 q 482 454 476 444 q 469 435 458 424 q 447 414 439 407 q 431 400 417 390 q 402 380 396 375 l 374 362 q 358 353 355 350 l 404 310 q 430 289 445 257 q 459 225 459 190 q 459 173 457 161 q 451 132 432 102 q 412 72 383 46 q 353 21 312 5 q 270 -11 225 -11 q 155 -11 112 21 q 68 54 68 113 q 68 129 72 146 q 75 162 80 176 q 86 189 97 203 q 108 217 115 226 q 123 235 142 249 l 168 270 q 176 276 201 293 l 235 316 l 220 326 q 154 377 154 446 q 154 455 157 472 q 169 533 222 571 q 275 610 360 610 q 428 610 463 584 q 499 559 499 514 q 499 502 496 489 z m 235 28 q 252 28 269 32 q 285 37 302 49 q 318 60 332 84 q 345 107 351 141 q 354 156 354 171 q 354 224 301 264 l 263 292 q 189 242 170 146 q 166 126 166 108 q 166 67 186 47 q 206 28 235 28 z"},"\\":{"x_min":0,"x_max":318,"ha":318,"o":"m 229 698 l 306 -48 l 231 -48 l 153 698 z"},"e":{"x_min":0,"x_max":474,"ha":474,"o":"m 364 365 q 364 400 325 400 q 292 400 263 361 q 234 322 210 224 q 364 250 364 365 z m 475 369 q 475 358 474 349 q 473 340 467 323 q 461 307 451 293 q 440 279 420 262 q 400 246 372 232 q 345 219 302 206 q 259 194 205 186 q 202 153 209 128 q 215 104 228 91 q 240 78 252 72 q 265 66 277 66 q 359 66 428 139 q 439 139 447 130 q 456 122 454 110 q 412 51 353 21 q 294 -10 225 -10 q 183 -10 154 5 q 124 20 108 45 q 93 71 86 101 q 79 130 79 165 q 79 200 90 237 q 102 275 125 312 q 148 349 180 378 q 212 408 259 426 q 305 444 358 444 q 475 444 475 369 z"},"b":{"x_min":0,"x_max":517,"ha":517,"o":"m 420 286 q 420 331 404 362 q 388 393 360 393 q 317 393 267 358 l 196 50 q 212 25 243 25 q 284 25 319 53 q 354 81 375 123 q 396 164 408 208 q 420 251 420 286 z m 320 583 l 281 417 q 332 444 391 444 q 427 444 456 431 q 485 419 504 398 q 522 377 532 351 q 542 325 542 296 q 542 267 531 231 q 521 196 500 157 q 479 118 440 80 q 403 42 354 15 q 310 -10 242 -10 q 211 -10 188 0 q 164 11 140 35 q 114 -2 96 -17 l 64 -3 q 74 25 85 74 l 197 557 q 204 590 204 607 q 204 623 199 629 q 194 635 183 635 l 152 637 q 147 637 147 642 l 151 672 q 188 675 252 683 q 315 691 333 698 q 345 698 345 688 z"},"%":{"x_min":0,"x_max":664,"ha":664,"o":"m 226 391 q 222 374 222 359 q 222 330 236 330 q 267 330 300 378 q 333 425 343 471 q 346 488 346 497 q 346 527 322 527 q 296 527 265 481 q 235 436 226 391 z m 480 80 q 477 59 477 47 q 477 18 491 18 q 514 18 538 43 q 562 67 577 99 q 592 131 598 159 q 601 174 601 185 q 601 216 577 216 q 551 216 520 170 q 490 125 480 80 z m 389 94 q 402 154 457 204 q 513 254 574 254 q 664 254 664 185 q 664 169 662 161 q 657 135 641 104 q 625 74 601 46 q 578 18 545 -1 q 512 -19 478 -19 q 433 -19 410 6 q 387 31 387 69 q 387 79 389 94 z m 480 517 q 514 517 554 530 q 594 543 628 573 l 696 561 l 163 -19 l 96 -1 l 540 480 q 501 472 462 472 q 443 472 409 480 l 408 472 q 404 452 394 429 q 383 405 365 381 q 348 357 327 337 q 306 318 279 305 q 251 293 223 293 q 178 293 155 318 q 132 344 132 381 q 132 393 135 405 q 146 465 202 516 q 257 566 319 566 q 345 566 367 558 q 390 550 396 541 l 389 542 q 436 517 480 517 z"},"m":{"x_min":0,"x_max":851,"ha":851,"o":"m 425 322 q 434 374 402 374 q 385 374 355 345 q 325 315 289 262 q 250 204 220 72 q 219 67 216 54 q 214 41 212 35 q 211 29 206 19 q 201 8 194 3 q 188 -1 175 -6 q 163 -10 146 -10 q 110 -10 100 -3 q 89 3 89 17 q 89 21 91 30 q 93 39 97 52 l 102 72 l 158 321 q 164 347 164 367 q 164 386 149 387 l 109 390 q 104 397 104 407 q 103 417 108 423 q 213 436 271 436 q 292 436 292 415 q 292 400 270 320 l 264 301 l 265 300 q 313 357 346 385 q 378 413 414 426 q 450 439 500 439 q 565 439 542 312 q 586 363 618 389 q 650 416 684 427 q 719 439 767 439 q 789 439 801 425 q 813 411 815 387 q 816 363 813 338 q 811 314 803 283 l 767 134 q 758 98 758 83 q 758 66 768 66 q 776 66 795 76 q 813 86 831 100 q 841 100 848 93 q 855 85 857 74 q 804 30 764 10 q 724 -10 679 -10 q 634 -10 634 46 q 634 74 646 125 l 681 275 l 684 288 q 687 299 688 304 q 689 310 691 320 q 693 330 694 335 q 694 340 694 347 q 694 354 692 358 q 690 362 688 366 q 685 371 680 372 q 675 374 669 374 q 652 374 622 345 q 592 315 556 262 q 518 204 487 72 q 486 67 483 54 q 481 41 479 35 q 478 29 473 19 q 468 8 461 3 q 455 -1 442 -6 q 430 -10 413 -10 q 377 -10 367 -3 q 356 3 356 17 q 356 21 358 30 q 360 39 363 52 l 369 72 l 425 321 l 425 321 z"},"#":{"x_min":0,"x_max":463,"ha":463,"o":"m 305 237 l 341 337 l 275 337 l 238 237 z m 417 337 l 380 237 l 469 237 l 450 181 l 360 181 l 299 13 l 224 13 l 284 181 l 218 181 l 157 13 l 82 13 l 142 181 l 53 181 l 73 237 l 163 237 l 199 337 l 110 337 l 130 394 l 219 394 l 280 561 l 356 561 l 294 394 l 361 394 l 421 561 l 497 561 l 436 394 l 525 394 l 506 337 z"},",":{"x_min":0,"x_max":244,"ha":244,"o":"m 137 102 q 165 102 178 82 q 192 62 192 32 q 192 -6 177 -36 q 162 -67 137 -86 q 112 -104 86 -115 q 61 -126 33 -131 q 26 -120 32 -98 q 72 -89 95 -64 q 118 -39 118 -17 q 118 -3 104 0 q 89 3 80 16 q 71 30 71 50 q 71 72 89 87 q 107 102 137 102 z"},"n":{"x_min":0,"x_max":606,"ha":606,"o":"m 389 125 l 424 275 q 436 328 437 341 q 438 374 412 374 q 394 374 359 344 q 323 313 289 262 q 250 204 220 72 q 219 67 216 54 q 214 41 212 35 q 211 29 206 19 q 201 8 194 3 q 188 -1 175 -6 q 163 -10 146 -10 q 110 -10 100 -3 q 89 3 89 17 q 89 21 91 30 q 93 39 97 52 l 102 72 l 158 321 q 164 347 164 367 q 164 386 149 387 l 109 390 q 104 397 104 407 q 103 417 108 423 q 213 436 271 436 q 292 436 292 415 q 292 400 270 320 l 264 301 l 265 300 q 334 381 385 410 q 436 439 510 439 q 532 439 544 425 q 556 411 557 387 q 559 363 556 338 q 553 314 546 283 l 510 134 q 500 98 500 83 q 500 66 511 66 q 519 66 538 76 q 557 86 574 100 q 584 100 591 93 q 598 85 600 74 q 547 30 507 10 q 466 -10 422 -10 q 377 -10 377 46 q 377 71 389 125 z"},"h":{"x_min":0,"x_max":562,"ha":562,"o":"m 324 583 l 274 367 q 321 411 362 427 q 403 444 445 444 q 534 444 534 363 q 534 342 520 282 l 483 125 q 476 95 476 83 q 476 67 484 67 q 503 67 536 109 l 567 82 q 520 34 482 12 q 444 -10 405 -10 q 390 -10 380 -6 q 369 -3 364 2 q 358 7 355 14 q 353 21 352 27 q 351 32 351 39 q 351 67 364 119 l 402 276 q 414 327 414 347 q 414 367 409 377 q 404 387 397 387 q 334 387 254 287 l 192 12 l 83 -20 l 73 0 l 201 557 q 208 588 208 607 q 208 623 203 629 q 198 635 187 635 l 156 637 q 151 637 151 642 l 155 672 q 192 675 256 683 q 319 691 337 698 q 349 698 349 688 z"},"z":{"x_min":0,"x_max":457,"ha":457,"o":"m 441 457 l 489 436 q 469 406 409 341 l 281 205 q 212 133 193 111 q 233 109 259 98 q 276 88 296 82 q 315 75 326 75 q 388 75 426 139 l 461 124 q 405 -10 300 -10 q 242 -10 204 13 q 159 40 140 40 q 139 40 134 35 q 129 29 120 16 q 111 3 100 -15 q 85 -13 67 -4 q 50 4 46 12 q 48 19 70 47 l 112 96 q 145 133 230 222 q 319 313 358 358 q 354 358 333 355 q 311 352 307 352 q 294 352 268 356 q 241 360 214 360 q 191 360 163 344 q 134 328 126 308 l 94 319 q 108 365 142 405 q 177 444 210 444 q 238 444 285 438 q 331 431 367 421 q 389 415 395 415 q 404 415 441 457 z"},"B":{"x_min":0,"x_max":593,"ha":593,"o":"m 311 562 l 278 376 l 332 376 q 365 376 391 386 q 417 396 433 410 q 448 425 458 445 q 469 465 472 483 q 476 502 476 521 q 476 541 470 556 q 464 571 455 580 q 446 589 434 595 q 421 600 410 602 q 398 604 385 604 q 354 604 339 599 q 324 594 319 586 q 314 579 311 562 z m 271 334 l 227 84 q 225 72 225 68 q 225 54 237 47 q 250 40 282 40 q 325 40 358 53 q 392 66 412 86 q 432 105 445 131 q 458 156 463 178 q 468 200 468 220 q 468 272 435 303 q 402 334 339 334 z m 269 645 q 292 645 329 646 q 366 646 386 646 q 591 646 591 521 q 591 494 581 469 q 572 444 558 427 q 544 410 527 395 q 509 380 497 373 q 484 366 473 361 l 473 359 q 589 326 589 217 q 589 184 580 153 q 570 123 548 95 q 526 66 493 46 q 460 25 408 12 q 357 0 293 0 l 156 0 q 58 -1 9 -2 q 5 3 5 16 q 5 29 10 33 q 35 34 47 36 q 59 37 73 42 q 86 46 93 56 q 100 65 105 81 q 112 97 116 122 l 186 523 q 191 553 191 567 q 191 596 177 603 q 164 610 119 612 q 115 617 115 629 q 114 642 119 647 q 219 645 269 645 z"},"K":{"x_min":0,"x_max":693,"ha":693,"o":"m 578 574 q 585 579 589 588 q 592 596 589 604 q 586 611 574 612 l 553 614 q 546 615 546 624 l 549 646 l 551 648 q 666 646 702 646 l 788 648 l 790 646 l 788 624 q 788 616 778 614 l 764 612 q 690 603 629 552 l 422 378 q 406 364 404 355 q 403 346 414 331 l 605 78 q 632 42 659 34 l 666 32 q 685 27 685 22 l 682 0 l 678 -2 q 592 0 553 0 l 494 -2 l 492 0 l 492 21 q 492 28 488 38 q 483 48 478 55 q 474 63 464 77 q 454 92 450 97 l 331 276 q 318 294 301 294 l 263 77 q 260 57 274 47 q 289 37 312 34 l 326 32 q 333 31 333 23 l 330 0 l 328 -2 q 227 0 191 0 l 55 -2 l 53 0 l 55 23 q 56 30 65 32 l 79 34 q 110 39 123 47 q 136 55 140 77 l 227 570 q 231 593 221 600 q 212 607 181 612 l 167 614 q 160 615 160 622 l 163 646 l 165 647 q 262 646 301 646 l 438 647 l 440 646 l 438 622 q 437 615 428 614 l 414 612 q 383 607 368 598 q 354 589 350 570 l 314 368 q 328 368 348 385 z"},"R":{"x_min":0,"x_max":584,"ha":584,"o":"m 478 468 q 490 539 467 576 q 443 613 398 613 q 356 613 318 605 l 268 322 l 316 322 q 386 322 425 357 q 464 393 478 468 z m 595 482 q 583 410 548 367 q 514 325 453 294 l 517 98 q 537 33 596 40 l 594 5 q 558 -6 513 -6 q 473 -6 445 18 q 417 41 403 79 l 346 247 q 340 265 320 270 q 301 276 260 276 l 225 77 q 221 54 231 43 q 242 33 270 33 l 284 33 q 292 33 290 24 l 286 1 l 284 -1 q 213 1 175 1 l 22 -1 l 21 1 l 25 24 q 26 33 34 33 l 48 33 q 76 33 90 44 q 104 55 108 77 l 193 559 q 198 580 194 592 q 189 604 172 604 l 166 604 l 136 602 q 128 602 130 609 l 136 642 q 153 646 236 650 q 320 654 400 654 q 445 654 482 644 q 520 634 549 614 q 578 594 590 560 q 603 526 595 482 z"},"T":{"x_min":0,"x_max":572,"ha":572,"o":"m 197 646 l 603 646 q 607 646 610 647 q 613 647 616 649 q 618 650 620 652 q 622 654 623 655 q 624 657 625 659 q 626 662 627 663 q 627 664 628 666 q 629 668 629 669 l 664 673 q 657 600 658 519 l 618 514 q 617 535 615 548 q 613 562 610 572 q 606 582 602 587 q 598 592 589 595 q 581 598 572 598 q 564 599 549 599 l 497 599 q 471 599 459 590 q 447 582 444 557 l 359 77 q 355 54 365 43 q 375 33 404 33 l 429 33 q 437 33 435 24 l 431 1 l 429 -1 q 315 1 277 1 l 145 -1 l 143 1 l 147 24 q 148 33 156 33 l 181 33 q 210 33 224 44 q 238 55 242 77 l 327 560 q 331 583 322 591 q 313 599 287 599 l 236 599 q 221 599 212 598 q 204 598 194 595 q 184 592 178 587 q 172 582 165 572 q 158 562 151 548 q 145 535 136 514 l 99 519 q 127 594 147 673 l 181 669 q 177 646 197 646 z"},"P":{"x_min":0,"x_max":522,"ha":522,"o":"m 319 604 l 269 322 q 290 319 316 319 q 441 319 467 467 q 471 498 471 520 q 472 542 465 559 q 459 575 451 586 q 443 596 430 602 q 417 608 405 610 q 392 613 377 613 q 355 613 319 604 z m 108 77 l 195 572 q 204 618 171 618 l 140 618 q 135 618 133 621 q 130 623 131 626 l 134 645 l 139 646 q 165 646 258 650 q 351 654 392 654 q 432 654 464 647 q 497 641 518 631 q 539 620 555 606 q 571 592 578 576 q 585 560 590 544 q 595 527 594 512 l 592 484 q 587 457 575 430 q 564 403 542 375 q 520 347 489 326 q 459 306 414 292 q 368 279 314 279 q 285 279 262 282 l 225 77 q 222 56 232 44 q 242 33 270 33 l 284 33 q 292 33 290 24 l 286 1 l 284 -1 q 187 1 152 1 l 22 -1 l 21 1 l 25 24 q 26 33 34 33 l 48 33 q 77 33 91 43 q 104 53 108 77 z"},"|":{"x_min":0,"x_max":239,"ha":239,"o":"m 112 -230 l 34 -230 l 214 652 l 291 652 z"},"t":{"x_min":0,"x_max":349,"ha":349,"o":"m 102 119 l 164 387 l 95 387 l 105 434 q 122 434 135 436 q 149 437 159 441 q 170 445 177 449 q 185 454 191 463 q 197 473 201 480 q 205 487 209 502 q 213 518 215 529 q 217 540 221 561 l 323 595 l 285 434 l 378 434 q 406 434 406 425 l 401 403 q 399 395 385 391 q 370 387 354 387 l 275 387 l 214 125 q 208 97 210 82 q 212 67 221 67 q 240 67 273 109 l 304 82 q 257 34 219 12 q 181 -10 143 -10 q 128 -10 118 -6 q 107 -3 101 2 q 96 7 93 14 q 89 21 89 27 q 88 32 88 39 q 88 58 102 119 z"},"M":{"x_min":0,"x_max":837,"ha":837,"o":"m 644 89 l 676 446 l 420 7 q 409 -12 387 -12 q 380 -12 371 -7 q 363 -2 361 7 l 255 437 l 168 88 q 167 86 167 82 q 167 79 166 77 q 163 61 163 51 q 163 35 171 35 l 197 35 q 208 35 218 32 q 228 28 226 23 l 224 9 l 216 -1 q 146 1 108 1 l 21 -1 l 15 8 l 17 23 q 20 35 51 35 l 77 35 q 91 35 106 89 l 227 572 q 227 572 228 574 q 228 575 228 576 l 229 581 q 230 586 230 594 q 230 611 218 611 l 188 611 q 160 612 160 622 l 163 636 l 175 647 l 335 647 l 453 168 l 732 647 l 881 647 l 884 637 l 882 622 q 878 611 848 611 l 821 611 q 803 611 799 582 l 797 572 l 755 90 q 753 74 753 65 q 753 35 767 35 l 792 35 q 809 35 817 32 q 825 29 823 23 l 821 8 l 809 -1 q 730 1 691 1 l 570 -1 l 562 8 l 564 23 q 567 35 598 35 l 624 35 q 635 35 643 77 q 643 79 644 83 q 644 87 644 89 z"},"g":{"x_min":0,"x_max":477,"ha":477,"o":"m 161 -23 l 150 -31 q 140 -38 137 -41 l 125 -51 q 116 -58 112 -63 q 108 -69 103 -77 q 98 -85 96 -94 q 94 -103 94 -113 q 94 -156 127 -175 q 159 -195 240 -195 q 302 -195 327 -177 q 352 -159 352 -127 q 352 -101 339 -88 q 325 -74 282 -54 q 271 -49 251 -43 q 231 -38 217 -34 q 203 -31 182 -27 q 162 -23 161 -23 z m 435 291 q 435 247 409 209 q 382 172 343 152 q 304 132 263 132 q 201 132 179 145 q 169 130 175 117 q 180 104 190 95 q 200 86 221 77 q 242 68 263 62 q 285 55 312 47 q 321 45 325 44 q 384 27 416 -11 q 447 -50 447 -100 q 447 -148 413 -180 q 378 -211 325 -225 q 271 -238 199 -238 q 173 -238 148 -235 q 123 -232 97 -225 q 70 -218 51 -207 q 32 -196 19 -178 q 7 -160 7 -136 q 7 -115 19 -95 q 32 -75 56 -56 q 80 -38 97 -27 q 115 -17 142 -2 q 113 8 100 24 q 86 41 86 56 q 86 103 154 161 q 104 187 104 283 q 104 344 156 392 q 208 439 280 439 q 316 439 349 429 q 382 419 398 401 q 424 425 444 435 q 464 445 485 445 q 508 445 520 433 q 533 421 533 405 q 533 390 521 380 q 509 370 494 370 q 491 370 488 370 q 485 371 483 371 q 481 372 479 374 l 476 376 q 475 377 473 380 q 471 382 471 383 l 469 386 q 467 389 467 389 q 461 399 452 399 q 438 399 415 378 q 425 365 430 339 q 435 314 435 291 z m 321 291 l 321 295 q 321 316 321 326 q 320 336 319 351 q 318 366 316 372 q 313 378 308 386 q 304 394 296 396 q 289 399 279 399 q 251 399 235 365 q 218 332 218 282 l 218 264 q 218 257 218 245 q 219 232 220 226 q 221 219 223 209 q 226 199 229 194 q 232 188 237 183 q 242 177 249 174 q 255 172 264 172 q 288 172 304 208 q 321 244 321 291 z"},"y":{"x_min":0,"x_max":510,"ha":510,"o":"m 295 344 l 338 90 l 340 89 l 441 265 q 453 287 457 296 q 460 306 460 317 q 460 326 451 348 q 441 371 441 396 q 441 415 459 429 q 476 444 499 444 q 549 444 549 380 q 549 361 536 331 q 522 301 488 244 l 299 -67 q 254 -140 192 -186 q 130 -232 83 -232 q 69 -232 55 -229 q 41 -225 28 -215 q 15 -204 15 -188 q 15 -138 80 -138 q 91 -138 108 -146 q 125 -153 135 -153 q 153 -153 181 -133 q 208 -113 236 -68 l 262 -27 q 251 30 231 122 l 196 277 l 181 341 q 176 362 166 362 q 156 362 141 349 q 126 335 115 319 q 96 332 90 350 q 132 401 162 423 q 191 444 234 444 q 247 444 256 438 q 266 432 272 425 q 277 417 282 402 q 287 387 289 376 q 291 371 295 344 z"},"@":{"x_min":0,"x_max":1042,"ha":1042,"o":"m 667 407 q 622 407 581 376 q 539 345 511 299 q 484 253 468 203 q 451 153 451 113 q 451 46 506 46 q 525 46 573 90 q 621 134 651 187 q 668 219 690 273 q 712 328 712 350 q 712 375 699 391 q 686 407 667 407 z m 330 112 q 330 155 350 203 q 369 251 403 294 q 438 336 480 370 q 522 405 573 425 q 623 445 670 445 q 695 445 719 438 q 743 432 756 421 l 822 439 l 857 427 l 736 126 q 726 101 722 87 q 716 71 715 62 q 713 54 715 49 q 717 44 719 42 q 722 41 726 41 q 764 41 798 67 q 832 93 854 133 q 877 172 894 218 q 911 264 919 303 q 927 343 927 370 q 927 427 910 474 q 894 521 867 551 q 840 582 804 603 q 769 624 732 633 q 695 642 657 642 q 574 642 495 605 q 416 568 355 505 q 295 441 258 351 q 221 260 221 159 q 221 112 229 68 q 237 23 258 -22 q 279 -68 312 -102 q 344 -135 398 -157 q 453 -178 522 -178 q 646 -178 779 -86 l 800 -125 q 750 -157 713 -176 q 676 -195 618 -210 q 560 -224 492 -224 q 402 -224 328 -196 q 253 -167 203 -118 q 153 -68 125 0 q 98 67 98 146 q 98 214 117 281 q 137 348 172 407 q 207 467 259 518 q 311 569 372 606 q 434 643 509 664 q 585 685 665 685 q 751 685 822 660 q 893 634 940 590 q 987 546 1013 485 q 1039 425 1039 355 q 1039 323 1034 290 q 1029 258 1016 222 q 1003 186 983 154 q 963 122 932 92 q 900 62 861 42 q 821 21 765 8 q 709 -5 644 -5 q 593 -5 593 31 q 594 48 596 51 q 529 -3 462 -3 q 431 -3 406 4 q 382 12 368 23 q 354 34 345 50 q 336 66 333 81 q 330 95 330 112 z"},".":{"x_min":0,"x_max":244,"ha":244,"o":"m 137 101 q 158 101 172 86 q 187 70 187 50 q 187 30 169 10 q 151 -10 125 -10 q 104 -10 89 3 q 75 17 75 36 q 75 67 95 84 q 115 101 137 101 z"},"p":{"x_min":0,"x_max":537,"ha":537,"o":"m 165 344 l 189 449 l 312 470 l 302 423 q 357 444 399 444 q 484 444 519 404 q 554 363 554 290 q 554 250 531 198 q 508 147 470 101 q 433 54 380 22 q 326 -10 272 -10 q 230 -10 204 1 q 180 -109 168 -157 q 167 -162 167 -172 q 167 -196 180 -196 l 198 -196 q 227 -196 227 -208 l 227 -232 l 225 -234 q 135 -232 97 -232 q 82 -232 51 -233 q 20 -235 -4 -236 l -27 -238 l -29 -236 l -29 -213 q -29 -201 2 -201 l 21 -201 q 42 -201 52 -156 l 148 271 q 120 243 102 218 l 66 249 q 97 292 165 344 z m 367 390 q 319 390 289 370 l 219 67 q 247 32 274 32 q 311 32 343 61 q 374 89 392 129 q 410 169 420 208 q 430 247 430 274 q 430 301 425 325 q 420 350 405 370 q 390 390 367 390 z"},"X":{"x_min":0,"x_max":679,"ha":679,"o":"m 132 620 l 137 645 l 142 646 q 156 646 196 646 q 235 645 238 645 q 239 645 272 645 q 305 646 342 646 q 380 646 393 646 q 396 645 397 645 l 392 620 q 392 613 386 613 q 350 613 342 604 q 333 595 344 572 l 418 414 q 425 401 429 401 q 434 400 445 412 q 551 522 587 572 q 614 613 558 613 q 552 613 553 620 l 557 645 l 559 646 q 571 646 621 646 q 670 645 674 645 q 675 645 717 646 q 758 646 769 646 l 770 645 l 766 620 q 764 614 759 613 q 758 613 756 613 q 722 613 696 597 q 669 582 640 552 l 472 383 q 457 367 457 356 q 457 347 475 312 l 585 102 q 621 33 675 33 q 682 33 680 25 l 676 1 l 675 -1 q 621 1 573 1 l 413 -1 l 411 1 l 415 26 q 417 33 422 33 q 464 33 470 40 q 476 47 461 73 l 374 246 q 364 269 358 271 q 353 272 340 258 q 256 165 189 77 q 178 62 177 53 q 175 43 183 39 q 190 36 197 34 q 204 33 215 33 q 221 33 219 25 l 215 1 l 212 -1 q 100 1 86 1 l 5 -1 l 5 1 l 9 26 q 10 33 21 33 q 42 33 58 38 q 75 42 91 55 q 107 67 116 75 q 125 84 144 104 l 317 291 q 332 306 333 315 q 334 323 323 344 l 221 549 q 208 575 191 590 q 175 605 164 609 q 153 613 142 613 q 137 613 134 615 q 131 617 132 620 z"},"*":{"x_min":0,"x_max":457,"ha":457,"o":"m 273 536 q 275 537 280 540 l 288 546 q 292 548 297 552 q 303 557 309 563 q 302 564 289 564 q 249 564 227 572 q 206 579 206 598 l 206 605 q 208 619 223 629 q 238 639 262 639 q 291 639 313 615 q 314 615 316 613 q 317 610 318 610 q 318 616 317 624 q 316 631 316 634 q 313 650 313 664 q 313 672 314 675 q 318 692 334 705 q 350 718 370 718 q 388 718 400 710 q 412 702 412 688 q 412 687 412 684 q 411 681 411 679 q 406 661 391 628 q 389 623 387 620 q 386 618 385 618 q 385 618 384 616 q 383 614 382 609 l 391 615 q 402 623 409 627 q 416 631 427 635 q 438 638 451 638 q 474 638 484 630 q 493 621 493 610 l 493 605 q 485 565 404 565 q 393 565 373 563 q 382 550 396 536 q 414 521 423 509 q 432 498 432 485 l 432 479 q 429 464 413 455 q 397 446 379 446 q 365 446 355 450 q 346 455 341 465 q 335 475 333 483 q 332 491 329 506 q 318 487 310 476 q 302 465 287 455 q 272 446 254 446 q 236 446 225 454 q 214 462 214 474 q 214 475 214 476 q 215 478 215 478 q 217 489 227 500 q 237 511 246 518 z"},"Y":{"x_min":0,"x_max":592,"ha":592,"o":"m 257 72 l 293 281 l 191 553 q 175 593 163 603 q 152 613 130 613 l 119 613 q 114 613 111 615 q 108 617 109 620 l 114 645 l 116 646 q 225 645 238 645 l 347 646 l 349 645 l 345 621 q 343 613 337 613 q 317 613 307 612 q 297 611 291 607 q 285 603 285 596 q 286 589 291 576 l 381 334 l 547 576 q 558 591 548 602 q 538 613 512 613 q 505 613 508 620 l 512 645 l 514 646 q 590 645 601 645 l 704 646 l 706 645 l 702 621 q 701 613 691 613 l 671 613 q 648 613 635 605 q 621 598 605 574 l 413 293 l 374 72 q 370 49 380 41 q 391 33 420 33 l 445 33 q 448 33 450 31 q 453 28 452 24 l 448 1 l 445 -1 q 341 1 304 1 l 160 -1 l 160 1 l 164 24 q 166 33 172 33 l 198 33 q 227 33 240 42 q 253 51 257 72 z"},"c":{"x_min":0,"x_max":444,"ha":444,"o":"m 238 -10 q 202 -10 170 6 q 138 22 117 47 q 96 72 84 100 q 72 127 72 152 q 72 212 96 267 q 120 322 157 360 q 195 398 243 421 q 290 444 337 444 q 376 444 406 434 q 435 425 451 409 q 468 393 475 375 q 483 357 483 337 q 483 320 470 308 q 457 296 444 292 q 431 287 421 287 q 367 287 367 323 q 367 332 369 343 q 371 354 371 370 q 371 389 360 397 q 350 405 340 405 q 315 405 290 389 q 264 373 243 344 q 222 315 209 270 q 196 225 196 173 q 196 140 201 115 q 207 91 214 77 q 222 63 232 55 q 243 46 251 44 q 260 41 269 41 q 289 41 326 63 q 364 84 392 116 l 432 82 q 389 38 345 14 q 300 -10 238 -10 z"},"!":{"x_min":0,"x_max":251,"ha":251,"o":"m 259 658 q 286 658 304 644 q 323 629 323 601 q 323 598 321 583 q 310 535 287 477 l 256 391 q 220 279 209 230 q 207 220 205 215 q 204 210 199 202 q 195 195 186 191 q 177 188 164 188 q 146 188 139 193 q 132 199 132 210 q 132 212 136 242 q 143 280 154 391 q 159 446 159 479 q 159 533 168 583 q 176 621 204 640 q 231 658 259 658 z m 142 101 q 163 101 177 86 q 191 70 191 50 q 191 30 174 10 q 156 -10 130 -10 q 108 -10 94 3 q 80 17 80 36 q 80 67 100 84 q 120 101 142 101 z"},"/":{"x_min":0,"x_max":316,"ha":316,"o":"m 440 682 l 61 -21 l -2 -21 l 378 682 z"},"[":{"x_min":0,"x_max":375,"ha":375,"o":"m 484 689 l 474 638 l 329 638 l 169 -147 l 314 -147 l 304 -198 l 48 -198 l 228 689 z"},"6":{"x_min":0,"x_max":470,"ha":470,"o":"m 201 280 q 197 264 193 240 q 183 186 183 143 q 183 81 203 54 q 223 28 251 28 q 281 28 308 63 q 335 99 350 174 q 354 197 354 221 q 354 240 351 256 q 348 272 341 287 q 333 302 319 310 q 305 319 285 319 q 246 319 201 280 z m 514 579 q 491 578 475 575 q 460 573 435 566 q 410 559 383 543 q 356 527 328 502 q 262 444 222 340 q 268 361 311 361 q 356 361 388 348 q 420 334 436 312 q 451 291 458 269 q 464 247 464 222 q 464 203 460 182 q 455 158 446 134 q 436 110 417 83 q 399 57 375 37 q 351 17 314 3 q 278 -10 235 -10 q 212 -10 192 -6 q 171 -1 150 10 q 128 21 112 40 q 96 58 86 89 q 76 120 76 160 q 76 196 85 243 q 114 396 238 508 q 295 559 360 583 q 426 606 517 612 z"},"r":{"x_min":0,"x_max":444,"ha":444,"o":"m 266 285 l 270 284 q 303 354 349 395 q 395 436 440 436 q 470 436 486 419 q 502 401 502 380 q 502 354 487 336 q 472 317 448 317 q 421 317 405 335 q 402 338 398 347 q 394 356 389 363 q 385 369 381 369 q 367 369 325 309 q 283 250 244 179 l 218 72 l 214 58 q 212 47 211 42 q 209 38 206 29 q 203 20 200 16 q 197 12 192 6 q 186 0 179 -3 q 173 -5 163 -8 q 154 -10 142 -10 q 109 -10 99 -3 q 89 3 89 17 q 89 24 91 32 q 93 41 96 52 q 100 64 102 72 l 156 316 q 164 350 164 367 q 164 386 146 387 l 106 390 q 101 397 101 407 q 100 417 105 423 q 210 436 270 436 q 280 436 286 429 q 292 423 292 411 q 292 396 274 320 z"},"2":{"x_min":0,"x_max":470,"ha":470,"o":"m 138 465 q 143 488 160 513 q 176 538 202 560 q 228 582 265 596 q 302 610 343 610 q 367 610 388 607 q 410 604 430 595 q 451 587 466 574 q 481 561 490 540 q 499 520 499 493 q 499 473 495 455 q 491 433 478 410 q 466 387 452 369 q 439 352 412 325 q 385 298 366 282 l 310 233 l 271 201 q 239 175 222 159 q 205 144 185 120 q 166 96 162 79 l 318 79 q 345 79 362 96 q 378 113 401 164 l 441 155 q 421 107 390 0 l 47 0 q 56 46 87 90 q 118 133 202 210 l 286 286 q 330 326 350 363 q 370 399 380 451 q 384 474 384 491 q 384 531 367 551 q 349 570 329 570 q 294 570 266 550 q 237 531 234 511 q 230 491 232 485 q 233 475 231 464 q 227 443 211 432 q 194 422 177 422 q 160 422 148 432 q 137 442 137 457 q 137 459 138 465 z"},"{":{"x_min":0,"x_max":314,"ha":314,"o":"m 336 564 l 300 385 q 288 324 265 295 q 243 267 198 248 q 227 233 238 214 q 250 195 250 166 q 250 139 241 98 l 208 -65 q 200 -106 200 -128 q 200 -146 204 -154 q 209 -170 218 -180 q 227 -190 232 -193 q 238 -195 245 -197 l 241 -215 q 120 -212 100 -177 q 87 -151 87 -116 q 87 -92 95 -50 l 130 123 q 136 155 136 175 q 136 233 89 245 l 90 250 q 111 256 127 268 q 144 280 154 298 q 164 315 170 332 q 176 349 180 370 l 218 557 q 235 634 275 674 q 310 709 430 712 l 426 693 q 393 686 366 650 q 349 628 336 564 z"},"9":{"x_min":0,"x_max":470,"ha":470,"o":"m 385 320 q 389 335 393 360 q 404 417 404 457 q 404 519 383 545 q 363 572 335 572 q 305 572 278 536 q 250 500 236 426 q 231 403 231 379 q 231 354 237 333 q 242 312 259 296 q 275 281 301 281 q 340 281 385 320 z m 72 21 q 95 22 111 25 q 126 27 151 34 q 176 42 203 57 q 229 73 258 98 q 324 157 364 260 q 318 239 275 239 q 229 239 198 252 q 166 265 150 287 q 135 309 128 331 q 122 353 122 378 q 122 397 126 418 q 131 442 140 466 q 150 490 168 517 q 187 543 211 563 q 235 583 272 597 q 308 610 351 610 q 374 610 394 606 q 415 602 436 590 q 458 579 474 560 q 490 542 500 511 q 510 480 510 440 q 510 404 501 357 q 472 204 348 92 q 291 41 226 17 q 160 -7 69 -12 z"}," ":{"x_min":0,"x_max":250,"ha":250,"o":""},"I":{"x_min":0,"x_max":343,"ha":343,"o":"m 271 122 q 266 91 266 77 q 266 49 280 42 q 294 35 339 33 q 343 28 343 15 q 343 2 338 -2 q 238 0 188 0 q 139 0 41 -2 q 37 3 37 16 q 37 29 42 33 q 63 34 74 35 q 84 36 97 39 q 110 42 116 48 q 122 53 129 63 q 136 73 140 87 q 144 101 148 122 l 218 523 q 223 556 223 567 q 223 596 209 603 q 195 610 151 612 q 147 617 146 629 q 146 642 151 647 q 250 645 301 645 q 351 645 448 647 q 452 643 451 629 q 451 616 446 612 q 425 611 414 610 q 403 609 391 606 q 378 603 372 597 q 366 592 359 582 q 353 572 349 558 q 345 544 341 523 z"},"H":{"x_min":0,"x_max":746,"ha":746,"o":"m 629 569 q 630 573 630 582 q 630 599 619 606 q 607 613 582 613 l 568 613 q 560 613 561 621 l 565 645 l 567 646 q 665 645 704 645 l 840 646 l 842 645 l 838 621 q 836 613 829 613 l 814 613 q 784 613 770 602 q 756 591 752 569 l 666 77 q 664 69 664 65 q 664 49 675 41 q 686 33 712 33 l 727 33 q 734 33 733 24 l 729 1 l 727 -1 q 625 1 590 1 l 454 -1 l 452 1 l 456 24 q 458 33 466 33 l 480 33 q 510 33 524 43 q 539 53 542 77 l 585 321 l 306 321 l 263 77 q 261 69 261 65 q 261 49 272 41 q 284 33 310 33 l 324 33 q 332 33 330 24 l 326 1 l 324 -1 q 223 1 187 1 l 51 -1 l 49 1 l 53 24 q 55 33 63 33 l 77 33 q 107 33 122 43 q 136 53 140 77 l 226 569 q 228 577 228 582 q 228 599 217 606 q 205 613 179 613 l 165 613 q 158 613 158 621 l 163 645 l 165 646 q 262 645 301 645 l 438 646 l 439 645 l 435 621 q 434 613 426 613 l 412 613 q 382 613 368 602 q 353 591 349 569 l 314 367 l 594 367 z"},"4":{"x_min":0,"x_max":470,"ha":470,"o":"m 355 493 q 271 400 128 219 l 302 219 z m 490 219 q 502 219 502 208 q 502 205 502 203 q 500 193 488 181 q 476 169 467 169 l 391 169 l 374 81 q 372 71 372 63 q 372 51 379 44 q 386 38 394 36 q 401 35 422 33 q 429 33 432 32 q 434 30 434 24 q 434 17 431 9 q 428 1 425 -2 q 363 0 295 0 q 243 0 181 -2 q 179 0 179 6 q 179 24 188 32 q 231 35 245 41 q 269 51 275 81 l 292 169 l 97 169 q 68 169 68 214 l 250 431 q 346 541 403 599 q 412 610 420 610 l 477 610 l 479 608 q 475 597 458 511 l 401 219 z"},"~":{"x_min":0,"x_max":473,"ha":473,"o":"m 78 207 l 62 211 q 82 262 133 302 q 184 341 236 341 q 258 341 276 333 q 294 325 315 309 q 355 277 369 277 q 389 277 416 295 q 443 313 467 352 l 515 332 q 500 301 480 278 q 461 255 443 243 q 426 230 406 223 q 387 215 375 213 q 363 211 352 211 q 334 211 318 217 q 301 223 294 227 q 288 232 271 244 q 233 275 217 275 q 196 275 165 254 q 133 232 109 198 z"},"D":{"x_min":0,"x_max":688,"ha":688,"o":"m 225 75 q 224 68 224 63 q 224 49 239 44 q 254 40 302 40 q 341 40 375 46 q 408 53 442 70 q 475 86 501 113 q 526 140 547 184 q 567 227 577 284 q 584 326 584 369 q 584 417 573 458 q 562 500 539 533 q 516 567 475 587 q 434 606 378 606 q 348 606 332 599 q 316 593 312 571 z m 23 0 l 21 2 l 25 24 q 26 33 34 33 l 48 33 q 77 33 91 43 q 104 53 108 77 l 195 569 q 196 576 196 583 q 196 599 185 606 q 174 613 150 613 l 136 613 q 134 613 132 615 q 129 618 130 621 l 134 644 l 137 646 l 421 646 q 550 646 631 566 q 713 486 713 366 q 713 337 708 309 q 695 238 665 183 q 634 127 595 94 q 557 60 508 38 q 460 17 415 8 q 371 0 324 0 z"},"^":{"x_min":0,"x_max":542,"ha":542,"o":"m 381 541 l 259 343 l 178 343 l 369 650 l 439 650 l 504 343 l 423 343 z"},"0":{"x_min":0,"x_max":470,"ha":470,"o":"m 346 566 q 335 566 323 560 q 312 554 296 536 q 280 518 266 488 q 251 458 235 406 q 220 355 206 284 q 192 211 192 146 q 192 33 240 33 q 249 33 259 38 q 270 43 288 65 q 306 86 321 122 q 359 207 382 323 q 396 397 396 449 q 396 525 372 551 q 358 566 346 566 z m 231 -10 q 163 -10 125 50 q 86 109 86 202 q 86 247 95 294 q 109 367 137 426 q 166 486 201 526 q 236 566 276 588 q 316 610 355 610 q 390 610 423 589 q 455 569 473 539 q 500 484 500 406 q 500 358 490 304 q 477 237 453 182 q 430 126 402 92 q 375 57 344 33 q 312 10 284 0 q 256 -10 231 -10 z"},"F":{"x_min":0,"x_max":492,"ha":492,"o":"m 227 77 q 226 69 226 65 q 226 33 272 33 l 286 33 q 293 33 292 24 l 288 1 l 285 -1 q 190 1 155 1 l 24 -1 l 23 1 l 27 24 q 28 33 36 33 l 49 33 q 78 33 92 43 q 105 53 110 77 l 197 569 q 197 569 198 574 q 198 579 198 582 q 198 598 188 605 q 177 613 152 613 l 138 613 q 135 613 133 615 q 131 618 132 621 l 136 644 l 139 646 l 586 646 q 577 571 577 484 l 537 475 q 535 499 532 517 q 528 535 520 556 q 512 577 496 588 q 480 600 458 600 l 333 600 q 319 600 314 571 l 278 365 l 386 365 q 392 365 397 367 q 402 370 406 375 q 411 381 414 385 q 417 390 421 400 q 425 411 427 417 l 433 436 q 433 439 438 443 q 443 447 450 447 l 470 447 l 474 437 q 457 380 451 344 q 443 297 441 251 l 434 242 l 414 242 q 407 242 403 245 q 399 249 400 252 q 401 272 401 280 q 401 302 396 312 q 392 323 379 323 l 271 323 z"},"`":{"x_min":0,"x_max":392,"ha":392,"o":"m 323 691 l 369 572 q 373 560 373 555 l 373 552 q 372 548 372 546 q 371 541 359 537 q 347 532 334 532 q 320 532 312 537 q 303 542 292 553 l 195 665 l 197 671 q 197 671 199 672 l 205 676 q 208 678 214 680 l 212 680 q 241 696 265 700 q 276 701 287 701 q 307 701 323 691 z"},"k":{"x_min":0,"x_max":570,"ha":570,"o":"m 96 72 l 208 563 q 211 577 213 586 q 215 595 215 603 q 215 611 215 616 q 215 620 211 624 q 208 628 204 630 q 201 632 192 634 q 184 636 177 636 q 170 637 156 638 q 152 652 161 672 q 274 676 345 698 q 352 698 355 695 q 359 691 358 685 q 347 648 332 583 l 261 274 q 279 279 306 303 l 346 337 q 398 383 447 411 q 496 439 521 439 q 555 439 576 426 q 596 413 596 395 q 596 369 579 352 q 562 336 539 336 q 527 336 520 340 q 512 345 508 350 q 504 355 498 359 q 491 364 483 364 q 465 364 445 354 q 426 346 392 316 l 340 270 l 340 266 q 363 260 377 245 q 391 229 405 202 q 418 176 446 90 q 451 74 459 68 q 467 62 482 62 q 507 62 530 94 q 545 94 560 77 q 536 35 502 13 q 468 -10 429 -10 q 399 -10 378 14 q 356 37 331 93 q 321 113 306 159 q 291 204 281 221 q 272 237 261 237 q 255 237 252 237 l 214 72 q 213 67 210 54 q 208 41 207 35 q 205 29 200 19 q 195 8 188 3 q 182 -1 169 -6 q 157 -10 140 -10 q 104 -10 94 -3 q 83 3 83 17 q 83 21 85 30 l 91 52 q 94 64 96 72 z"},"u":{"x_min":0,"x_max":561,"ha":561,"o":"m 280 315 l 238 153 q 229 119 229 88 q 229 67 233 58 q 237 49 249 49 q 261 49 281 60 q 300 71 323 93 q 346 114 367 152 q 388 190 399 236 l 445 433 q 459 433 500 437 q 540 441 563 446 l 486 125 q 481 106 481 83 q 481 67 489 67 q 508 67 541 109 l 572 82 q 524 34 486 12 q 448 -10 410 -10 q 392 -10 380 -5 q 369 0 364 8 q 359 17 357 23 q 356 30 356 39 q 356 56 365 79 q 286 -10 200 -10 q 148 -10 128 7 q 108 24 108 64 q 108 77 112 102 q 116 127 119 141 l 162 309 q 169 336 169 351 q 169 367 161 367 q 140 367 107 325 q 89 334 79 352 q 130 405 165 425 q 199 444 239 444 q 253 444 264 440 q 275 437 281 432 q 286 427 289 420 q 292 413 293 407 q 294 402 294 395 q 294 370 280 315 z"},"]":{"x_min":0,"x_max":375,"ha":375,"o":"m -9 -200 l 1 -149 l 146 -149 l 306 636 l 161 636 l 171 687 l 427 687 l 247 -200 z"},"U":{"x_min":0,"x_max":683,"ha":683,"o":"m 638 569 q 640 577 640 582 q 640 598 628 605 q 617 613 591 613 l 577 613 q 570 613 570 621 l 575 645 l 577 646 q 652 645 691 645 l 805 646 l 807 645 l 803 621 q 802 613 793 613 l 779 613 q 749 613 735 602 q 721 591 717 569 l 668 293 q 658 235 644 192 q 630 149 606 109 q 582 69 548 43 q 515 18 465 3 q 415 -12 350 -12 q 321 -12 294 -8 q 267 -3 238 10 q 208 22 187 42 q 166 62 151 97 q 137 131 137 175 q 137 201 143 235 l 201 569 q 203 577 203 582 q 203 598 191 605 q 180 613 154 613 l 140 613 q 133 613 133 621 l 138 645 l 140 646 q 237 645 276 645 l 413 646 l 415 645 l 410 621 q 409 613 401 613 l 387 613 q 357 613 343 602 q 328 591 324 569 l 271 268 q 260 194 260 171 q 260 140 269 115 q 278 91 292 77 q 305 62 322 53 q 339 43 353 40 q 367 36 379 36 q 421 36 455 51 q 489 66 510 89 q 532 111 548 145 q 564 179 572 209 q 580 237 587 276 z"},"o":{"x_min":0,"x_max":507,"ha":507,"o":"m 198 173 q 198 138 204 111 q 209 84 217 70 q 225 56 236 47 q 246 38 254 36 q 263 33 271 33 q 299 33 321 52 q 343 71 356 99 q 369 126 378 161 q 387 195 390 222 q 393 250 393 272 q 393 297 390 318 q 387 340 379 360 q 372 380 358 391 q 343 403 323 403 q 289 403 263 380 q 237 356 224 320 q 210 283 204 246 q 198 209 198 173 z m 72 165 q 72 202 82 240 q 93 278 115 315 q 138 352 169 380 q 200 409 245 426 q 290 444 342 444 q 391 444 427 428 q 463 413 482 388 q 500 362 509 335 q 517 308 517 279 q 517 221 494 167 q 471 113 433 75 q 396 37 346 13 q 297 -10 246 -10 q 206 -10 173 3 q 141 17 123 36 q 104 55 92 80 q 80 105 76 126 q 72 146 72 165 z"},"N":{"x_min":0,"x_max":742,"ha":742,"o":"m 223 547 q 202 603 148 611 l 134 613 q 125 614 124 622 l 122 645 l 124 647 q 278 646 317 646 l 617 171 l 619 171 l 690 569 q 694 593 684 600 q 674 606 644 611 l 630 613 q 623 614 623 621 l 626 645 l 628 646 q 692 645 731 645 l 850 646 l 852 645 l 850 621 q 849 614 840 613 l 826 611 q 795 606 780 597 q 766 588 762 569 l 667 25 q 664 8 651 -2 q 638 -12 617 -12 q 583 -12 566 15 l 303 443 q 293 459 287 459 q 279 459 276 438 l 212 77 q 208 57 223 47 q 238 38 261 34 l 275 32 q 282 31 282 23 l 279 0 l 277 -2 q 191 0 155 0 l 55 -2 l 53 0 l 55 23 q 56 31 65 32 l 79 34 q 110 39 123 47 q 136 55 140 77 z"},"+":{"x_min":0,"x_max":551,"ha":551,"o":"m 373 261 l 544 261 l 532 203 l 361 203 l 326 32 l 241 32 l 275 203 l 104 203 l 116 261 l 288 261 l 322 433 l 408 433 z"},"G":{"x_min":0,"x_max":696,"ha":696,"o":"m 663 229 l 643 114 q 640 96 649 85 q 586 38 521 14 q 455 -10 368 -10 q 301 -10 246 10 q 191 30 154 65 q 117 101 97 149 q 77 197 77 252 q 77 278 82 308 q 93 373 122 429 q 151 485 191 526 q 230 568 279 598 q 327 628 379 643 q 432 658 483 658 q 527 658 562 651 q 598 645 615 636 q 633 627 652 621 q 670 614 686 614 q 677 545 677 445 l 638 437 q 635 468 629 492 q 624 517 612 541 q 600 565 583 581 q 565 597 538 607 q 511 617 475 617 q 386 617 310 535 q 232 453 210 327 q 204 292 204 255 q 204 193 223 144 q 243 95 287 65 q 331 34 393 34 q 427 34 462 44 q 497 54 523 74 l 551 229 q 552 234 552 236 q 552 254 534 263 q 517 272 489 272 l 476 272 q 468 272 469 281 l 474 304 l 476 306 q 569 304 606 304 l 731 306 l 733 304 l 729 281 q 728 272 719 272 l 714 272 q 686 272 677 262 q 667 252 663 229 z"},"q":{"x_min":0,"x_max":572,"ha":572,"o":"m 410 332 q 410 362 397 383 q 385 404 364 404 q 321 404 282 367 q 244 331 222 275 q 200 218 200 160 q 200 43 248 43 q 271 43 315 90 q 360 138 376 183 q 389 222 399 270 q 410 318 410 332 z m 299 -152 l 345 41 q 315 14 287 4 q 258 -6 217 -6 q 181 -6 153 9 q 125 23 109 46 q 93 69 84 95 q 76 122 76 149 q 76 210 105 267 q 133 324 176 361 q 219 398 269 421 q 318 443 361 443 q 426 443 459 408 q 472 421 478 429 q 484 436 488 440 q 492 443 501 447 q 510 451 520 451 q 551 451 551 435 q 551 433 550 427 q 548 420 548 419 l 416 -153 q 415 -158 415 -168 q 415 -192 427 -192 l 446 -192 q 474 -192 474 -204 l 474 -219 l 464 -229 q 382 -228 344 -228 q 329 -228 300 -229 q 271 -231 249 -232 l 228 -234 l 218 -224 l 218 -209 q 218 -197 249 -197 l 268 -197 q 280 -197 287 -185 q 294 -173 299 -152 z"},"d":{"x_min":0,"x_max":556,"ha":556,"o":"m 402 332 q 402 363 388 384 q 375 405 353 405 q 310 405 272 366 q 234 328 214 271 q 193 213 193 154 q 193 129 195 113 q 196 96 201 77 q 207 59 219 49 q 231 39 250 39 q 269 39 307 83 q 345 128 367 180 q 380 216 391 267 q 402 317 402 332 z m 577 583 l 470 125 q 463 93 463 83 q 463 67 472 67 q 489 67 523 109 l 554 82 q 507 34 469 12 q 431 -10 392 -10 q 337 -10 337 39 q 337 50 339 60 l 337 61 q 274 -10 215 -10 q 177 -10 148 2 q 120 14 105 31 q 91 47 82 70 q 74 93 72 110 q 70 126 70 144 q 70 193 89 241 q 107 288 138 324 q 168 360 205 387 q 242 415 280 429 q 318 444 350 444 q 392 444 425 425 l 454 557 q 461 588 461 607 q 461 623 456 629 q 451 635 440 635 l 409 637 q 404 637 404 642 l 408 672 q 446 674 509 683 q 572 691 590 698 q 602 698 602 688 z"},"1":{"x_min":0,"x_max":470,"ha":470,"o":"m 213 81 l 281 430 q 287 460 287 469 q 287 478 284 480 q 281 483 275 483 q 265 483 231 471 q 197 460 163 444 l 152 477 q 197 498 277 542 q 356 586 368 593 q 398 610 412 610 q 422 610 422 600 q 422 598 421 593 q 406 530 396 477 l 319 81 q 317 73 317 66 q 317 61 318 56 q 319 52 322 49 q 324 46 326 44 q 328 42 333 40 l 341 37 q 344 36 351 35 q 357 35 361 34 q 365 34 374 33 q 382 33 386 32 q 388 30 388 24 q 388 17 385 9 q 382 1 379 -2 q 317 0 251 0 q 162 0 100 -2 q 98 0 98 6 q 98 24 107 32 q 157 36 173 41 q 207 51 213 81 z"},"5":{"x_min":0,"x_max":470,"ha":470,"o":"m 339 186 q 344 213 344 239 q 344 288 325 316 q 306 344 276 344 q 246 344 217 337 q 188 330 139 310 l 230 607 q 297 601 348 601 q 414 601 500 611 l 516 601 l 488 532 q 407 526 381 526 q 297 526 256 531 l 214 393 q 252 401 311 401 q 382 401 419 358 q 457 316 457 251 q 457 228 453 208 q 435 117 362 52 q 290 -13 199 -13 q 169 -13 136 -4 q 103 6 79 23 q 56 41 56 60 q 56 63 56 65 q 59 82 74 94 q 89 107 110 107 q 146 107 157 69 q 163 52 177 42 q 191 31 204 31 q 244 31 285 74 q 325 116 339 186 z"}}}
